<?xml version="1.0" standalone="no"?>
<!DOCTYPE svg PUBLIC "-//W3C//DTD SVG 20010904//EN"
 "http://www.w3.org/TR/2001/REC-SVG-20010904/DTD/svg10.dtd">
<svg version="1.0" xmlns="http://www.w3.org/2000/svg"
 width="512.000000pt" height="512.000000pt" viewBox="0 0 512.000000 512.000000"
 preserveAspectRatio="xMidYMid meet">

<g transform="translate(0.000000,512.000000) scale(0.100000,-0.100000)"
fill="#000000" stroke="none">
<path d="M2174 4965 c-24 -16 -38 -69 -25 -92 6 -11 10 -3 14 27 7 55 30 79
57 62 27 -17 39 -15 16 3 -25 19 -36 19 -62 0z"/>
<path d="M2374 4965 c-10 -8 -14 -15 -8 -15 5 0 15 5 21 11 20 20 42 2 56 -47
9 -32 16 -42 20 -31 9 23 -11 75 -33 87 -25 13 -33 13 -56 -5z"/>
<path d="M2593 4973 c-7 -2 -13 -9 -13 -15 0 -6 6 -6 15 2 8 7 24 10 35 7 11
-3 18 -1 14 4 -6 10 -31 11 -51 2z"/>
<path d="M2777 4962 c-19 -21 -22 -32 -8 -32 5 0 11 9 14 20 5 20 47 29 47 10
0 -5 5 -10 11 -10 8 0 8 5 -1 15 -17 20 -43 19 -63 -3z"/>
<path d="M2650 4895 c0 -55 13 -73 25 -34 9 26 -3 89 -15 89 -6 0 -10 -25 -10
-55z"/>
<path d="M2242 4896 c0 -25 5 -46 10 -46 12 0 10 78 -2 85 -6 4 -10 -11 -8
-39z"/>
<path d="M2350 4890 c0 -34 6 -56 18 -68 15 -16 17 -46 17 -347 l0 -330 -87
-3 -88 -3 0 327 c0 323 0 328 22 351 12 13 16 23 10 23 -7 0 -12 -4 -12 -9 0
-14 -32 -23 -44 -11 -16 16 -27 11 -17 -8 7 -14 18 -582 12 -659 -1 -9 -21
-13 -67 -13 -58 0 -65 2 -60 18 40 126 60 282 36 282 -5 0 -10 -8 -10 -17 0
-27 -76 -173 -117 -228 l-39 -50 -77 -3 c-43 -2 -77 1 -77 6 0 6 14 39 30 75
17 36 34 82 37 103 6 36 5 38 -10 25 -9 -7 -22 -32 -28 -54 -6 -23 -24 -67
-40 -99 -29 -57 -30 -58 -73 -58 -54 0 -81 -21 -66 -51 6 -10 20 -19 31 -19
17 0 18 -3 8 -22 -7 -13 -44 -57 -83 -99 -545 -585 -741 -1122 -570 -1557 86
-218 280 -429 514 -560 61 -35 216 -93 298 -112 30 -7 56 -18 58 -24 3 -7 -17
-48 -44 -93 -46 -77 -92 -196 -106 -275 l-7 -38 826 0 c751 0 825 1 825 16 0
61 -60 218 -126 325 -20 33 -33 63 -30 66 3 4 57 22 119 40 261 79 452 205
607 399 135 170 210 381 210 592 0 279 -156 642 -414 966 -82 103 -243 272
-226 239 6 -13 19 -27 30 -33 11 -6 20 -15 20 -20 0 -5 35 -53 77 -107 204
-261 326 -493 390 -743 35 -138 37 -340 5 -462 -43 -159 -120 -294 -241 -421
-130 -136 -271 -225 -448 -282 -113 -36 -123 -34 -150 40 -38 106 -37 108 73
160 l97 45 141 0 c97 0 146 4 154 12 16 16 15 23 -4 42 -12 12 -36 16 -100 16
-46 0 -84 4 -84 8 0 4 25 32 56 62 257 250 345 574 253 933 -60 234 -190 470
-416 752 l-105 130 66 3 c50 2 70 -1 82 -13 20 -19 28 -19 20 0 -4 12 3 15 30
15 36 0 74 15 74 28 -1 27 -24 37 -91 42 l-73 5 -26 46 c-15 25 -33 63 -40 85
-7 21 -15 34 -17 28 -3 -10 10 -48 54 -151 4 -10 -14 -13 -71 -13 l-76 0 -29
40 c-48 66 -110 202 -118 255 l-6 49 29 -19 c64 -42 90 -50 159 -50 53 0 81 6
118 24 47 23 48 23 85 5 83 -39 184 -9 222 67 54 104 -7 227 -122 246 -41 6
-58 29 -58 75 0 18 4 19 33 14 50 -9 132 -52 162 -83 30 -33 65 -138 65 -197
0 -84 -27 -145 -92 -209 l-60 -58 49 24 c123 64 186 207 153 348 -37 159 -120
218 -317 227 -134 6 -171 -5 -262 -76 -176 -138 -242 -352 -182 -586 12 -44
21 -83 21 -88 0 -5 -51 -7 -112 -6 l-113 3 1 305 c0 168 3 320 7 338 6 30 5
33 -13 27 -15 -5 -22 0 -30 19 -5 14 -14 26 -20 26 -14 0 -13 -7 5 -34 13 -19
16 -77 18 -352 l2 -329 -80 0 -80 0 3 325 c3 272 6 328 19 342 14 16 12 16
-21 6 l-37 -12 3 -333 3 -333 -94 0 -94 0 7 332 c6 311 8 334 26 353 22 24 25
35 9 35 -5 0 -8 -4 -4 -10 3 -5 -6 -17 -21 -27 -25 -16 -27 -16 -40 2 -8 10
-14 40 -14 67 0 26 -4 48 -10 48 -5 0 -10 -22 -10 -50z m1145 -780 c7 -11 38
-11 -870 -15 -647 -4 -988 2 -979 16 8 13 1841 11 1849 -1z m-1655 -48 c0 -4
-32 -43 -70 -87 -176 -200 -334 -446 -405 -630 -69 -181 -80 -234 -80 -405 0
-134 3 -165 23 -230 55 -176 159 -334 299 -454 l83 -71 -91 -5 c-95 -6 -117
-17 -98 -52 9 -16 25 -18 154 -18 130 0 151 -3 217 -26 40 -14 77 -30 82 -34
11 -11 -43 -170 -60 -177 -18 -7 -189 47 -279 87 -238 107 -434 307 -527 538
-77 191 -77 422 -2 652 36 110 133 300 210 415 85 127 167 229 306 383 l112
122 63 0 c35 0 63 -3 63 -8z m344 -829 c4 -461 4 -846 1 -855 -9 -23 -110 -52
-155 -44 -60 10 -174 73 -232 129 -66 63 -148 185 -177 262 -73 194 -45 479
79 790 46 117 151 313 235 442 l75 113 83 0 84 0 7 -837z m196 3 c0 -786 -1
-835 -17 -839 -10 -3 -36 -8 -58 -11 -22 -4 -52 -9 -67 -12 l-28 -6 0 851 0
851 85 0 85 0 0 -834z m210 542 c0 -161 3 -516 7 -788 3 -272 3 -517 -1 -543
l-7 -48 -87 3 -87 3 -2 833 -2 832 89 0 90 0 0 -292z m193 205 c2 -49 5 -427
6 -842 l1 -754 -61 7 c-34 3 -73 6 -85 6 l-24 0 0 828 c0 456 3 832 7 835 3 4
39 7 79 7 l72 0 5 -87z m382 -30 c145 -221 272 -513 320 -733 21 -99 30 -318
16 -395 -6 -35 -33 -104 -63 -165 -83 -166 -204 -275 -354 -320 -36 -11 -55
-9 -140 10 -54 12 -107 27 -116 32 -17 8 -18 59 -18 842 0 458 3 836 7 839 3
4 66 7 138 7 l133 0 77 -117z m473 -1810 c3 -10 -212 -13 -1052 -13 -580 0
-1057 4 -1060 9 -3 4 -3 11 1 15 4 3 479 5 1056 4 830 -2 1051 -6 1055 -15z
m-963 -200 c125 -31 273 -133 345 -238 68 -99 120 -244 120 -334 l0 -31 -625
0 -625 0 0 38 c0 57 34 182 69 248 54 106 170 223 271 274 133 67 291 82 445
43z"/>
<path d="M2134 1722 c-132 -62 -138 -258 -10 -324 49 -25 137 -29 181 -8 26
13 30 21 33 63 3 51 0 54 -38 32 -14 -8 -44 -14 -68 -15 -88 0 -124 89 -62
152 28 27 36 30 76 25 25 -2 53 -12 63 -21 26 -24 31 -20 31 27 0 61 -24 80
-103 84 -45 3 -73 -1 -103 -15z"/>
<path d="M2484 1721 c-73 -33 -112 -111 -99 -198 7 -49 49 -104 99 -130 40
-21 132 -22 171 -3 26 13 30 21 33 63 3 50 -3 56 -34 32 -10 -8 -41 -15 -67
-15 -38 0 -53 5 -72 25 -33 32 -33 84 -1 122 21 24 32 28 74 28 33 0 56 -6 69
-17 29 -27 33 -23 33 33 0 48 -2 51 -35 65 -47 19 -122 17 -171 -5z"/>
<path d="M2754 1717 c-2 -7 -3 -85 -2 -172 l3 -160 80 -3 c87 -3 160 10 188
35 11 11 17 31 17 60 0 36 -5 49 -30 71 -29 27 -29 28 -10 40 14 8 20 23 20
46 0 48 -8 65 -41 81 -37 20 -217 21 -225 2z m154 -66 c25 -16 9 -46 -26 -49
-30 -3 -32 -1 -32 27 0 26 4 31 23 31 12 0 28 -4 35 -9z m25 -142 c18 -29 1
-49 -43 -49 -39 0 -40 1 -40 36 0 34 1 35 36 32 21 -2 42 -10 47 -19z"/>
<path d="M2567 4933 c-11 -10 -8 -83 3 -83 6 0 10 20 10 45 0 46 -2 50 -13 38z"/>
<path d="M2848 4895 c4 -47 16 -61 20 -22 3 29 -6 67 -16 67 -4 0 -6 -20 -4
-45z"/>
<path d="M2750 4895 c0 -14 5 -25 10 -25 6 0 10 11 10 25 0 14 -4 25 -10 25
-5 0 -10 -11 -10 -25z"/>
<path d="M1510 4887 c-133 -38 -220 -156 -220 -300 0 -153 139 -300 279 -296
l36 1 -46 14 c-57 18 -132 82 -162 138 -18 33 -22 58 -22 131 0 76 4 98 25
140 31 63 111 119 189 133 l53 10 -6 -42 c-6 -41 -12 -49 -75 -89 -48 -30 -73
-78 -73 -136 0 -57 21 -102 62 -131 52 -37 94 -44 154 -25 49 15 57 16 100 1
73 -25 141 -21 214 14 34 16 65 36 68 44 9 25 -35 142 -77 206 -40 59 -98 113
-177 165 -41 27 -52 29 -160 32 -74 2 -134 -2 -162 -10z"/>
<path d="M2575 4830 c3 -5 11 -10 16 -10 6 0 7 5 4 10 -3 6 -11 10 -16 10 -6
0 -7 -4 -4 -10z"/>
<path d="M3447 4004 c3 -8 14 -19 25 -25 17 -9 18 -8 6 10 -15 25 -39 36 -31
15z"/>
<path d="M2507 934 c-42 -80 -77 -147 -77 -150 0 -2 22 -4 50 -4 39 0 53 4 62
20 9 13 24 20 45 20 22 0 36 -6 43 -20 8 -16 21 -20 60 -20 28 0 50 4 50 8 0
9 -138 273 -149 285 -4 4 -42 -58 -84 -139z m93 -40 c0 -8 -7 -14 -15 -14 -17
0 -18 2 -9 24 7 18 24 12 24 -10z"/>
<path d="M1614 1045 c-3 -11 -3 -74 -2 -140 l3 -120 103 -3 103 -3 -3 38 -3
38 -58 3 c-74 4 -73 26 1 30 52 3 52 3 52 38 l0 34 -56 0 c-77 0 -69 24 9 28
l57 3 0 34 0 34 -100 3 c-94 3 -101 2 -106 -17z"/>
<path d="M1870 924 l0 -145 43 3 42 3 3 58 3 57 83 -65 c46 -36 87 -65 90 -65
3 0 6 65 6 145 l0 145 -45 0 -45 0 0 -55 c0 -30 -3 -55 -7 -55 -3 0 -41 27
-84 60 -42 33 -80 60 -83 60 -3 0 -6 -66 -6 -146z"/>
<path d="M2233 1050 c-32 -19 -40 -42 -33 -90 3 -25 32 -52 78 -71 23 -10 42
-23 42 -29 0 -18 -43 -11 -66 11 l-22 21 -31 -23 c-28 -20 -30 -25 -18 -43 33
-50 129 -71 187 -41 81 42 57 145 -39 174 -23 6 -41 16 -41 21 0 18 21 21 44
7 21 -14 26 -14 55 4 28 17 31 22 20 35 -38 46 -122 57 -176 24z"/>
<path d="M2972 1051 c-46 -29 -72 -77 -72 -132 0 -117 122 -184 236 -129 56
27 78 73 72 147 -4 46 -10 60 -41 91 -33 32 -42 36 -99 40 -50 2 -70 -1 -96
-17z m115 -69 c6 -4 17 -20 22 -36 17 -42 -5 -80 -47 -84 -44 -4 -62 12 -62
56 0 56 46 90 87 64z"/>
<path d="M3300 1058 c-46 -25 -60 -87 -27 -126 6 -8 32 -25 59 -38 26 -13 48
-29 48 -34 0 -18 -49 -10 -69 11 -19 21 -20 21 -45 3 -34 -25 -32 -48 6 -75
75 -54 190 -28 204 46 9 48 -16 82 -80 113 -35 17 -45 27 -38 34 8 8 18 6 37
-6 25 -16 27 -16 56 5 l31 22 -25 25 c-31 30 -116 41 -157 20z"/>
<path d="M2770 920 l0 -140 45 0 45 0 0 140 0 140 -45 0 -45 0 0 -140z"/>
</g>
</svg>
